<svg width="1337" height="301" viewBox="0 0 1337 301" fill="none" xmlns="http://www.w3.org/2000/svg">
<path d="M71.7735 300.905C56.1001 300.905 43.0264 298.758 32.5524 294.463C22.1537 290.243 14.2417 284.478 8.81627 277.169C3.46623 269.86 0.527469 261.646 0 252.529L45.6638 246.538C46.4927 250.08 48.0751 253.358 50.411 256.372C52.8223 259.386 56.2508 261.797 60.6967 263.606C65.2178 265.414 71.0577 266.318 78.2162 266.318C88.6902 266.318 97.8079 263.756 105.569 258.632C113.331 253.584 118.115 245.106 119.924 233.201L125.123 201.44H123.089C120.225 206.262 116.307 210.821 111.334 215.116C106.436 219.411 100.445 222.915 93.3621 225.628C86.3543 228.34 78.2538 229.697 69.0608 229.697C55.9494 229.697 44.5712 226.683 34.926 220.654C25.3562 214.551 18.4238 205.245 14.1286 192.736C9.90889 180.152 9.38142 164.253 12.5462 145.038C15.8618 125.371 21.8146 108.944 30.4048 95.7573C38.9951 82.5705 49.1677 72.6993 60.9227 66.1437C72.6777 59.588 84.9226 56.3101 97.6572 56.3101C107.378 56.3101 115.214 57.9679 121.167 61.2834C127.195 64.5236 131.83 68.5926 135.07 73.4905C138.31 78.3131 140.608 83.0603 141.965 87.7322H143.886L148.633 58.5707H196.445L167.283 233.879C164.947 248.723 159.333 261.081 150.442 270.952C141.626 280.899 130.436 288.359 116.872 293.332C103.309 298.381 88.2758 300.905 71.7735 300.905ZM89.8582 193.527C97.5442 193.527 104.439 191.606 110.543 187.763C116.721 183.845 121.883 178.269 126.028 171.035C130.172 163.725 133.073 154.985 134.731 144.812C136.389 134.639 136.351 125.823 134.618 118.363C132.96 110.828 129.72 104.988 124.897 100.844C120.15 96.6992 113.896 94.627 106.134 94.627C98.147 94.627 91.1392 96.7746 85.1109 101.07C79.0827 105.289 74.0718 111.167 70.0781 118.702C66.1597 126.237 63.4094 134.941 61.8269 144.812C60.1692 154.834 60.0938 163.499 61.6009 170.809C63.1833 178.043 66.3104 183.656 70.9823 187.65C75.6542 191.568 81.9461 193.527 89.8582 193.527Z" fill="white"/>
<path d="M259.031 235.574C241.248 235.574 226.516 231.957 214.837 224.724C203.157 217.414 194.944 207.091 190.196 193.754C185.525 180.341 184.733 164.479 187.823 146.168C190.837 128.31 196.903 112.636 206.02 99.1482C215.214 85.66 226.742 75.1483 240.607 67.613C254.472 60.0778 269.92 56.3101 286.949 56.3101C298.403 56.3101 308.764 58.1563 318.032 61.8485C327.376 65.4655 335.137 70.9662 341.316 78.3508C347.495 85.66 351.715 94.8154 353.976 105.817C356.312 116.818 356.274 129.704 353.863 144.473L351.715 157.697H205.229L209.863 127.858H311.138C312.268 120.925 311.816 114.784 309.781 109.434C307.747 104.084 304.356 99.9017 299.609 96.8876C294.861 93.7981 289.022 92.2534 282.089 92.2534C275.006 92.2534 268.375 93.9865 262.196 97.4527C256.017 100.919 250.818 105.478 246.598 111.129C242.454 116.705 239.779 122.771 238.573 129.327L233.26 158.941C231.753 168.058 232.055 175.631 234.165 181.659C236.35 187.688 240.118 192.209 245.468 195.223C250.818 198.162 257.599 199.631 265.813 199.631C271.163 199.631 276.174 198.878 280.846 197.37C285.593 195.863 289.813 193.641 293.505 190.702C297.197 187.688 300.211 183.958 302.547 179.512L346.516 182.451C342.447 193.151 336.268 202.494 327.979 210.482C319.69 218.394 309.706 224.573 298.026 229.019C286.422 233.389 273.424 235.574 259.031 235.574Z" fill="white"/>
<path d="M626.157 234.309C612.894 234.309 601.478 230.919 591.909 224.137C582.414 217.28 575.633 207.22 571.563 193.958C567.57 180.621 567.193 164.269 570.433 144.903C573.749 125.01 579.702 108.47 588.292 95.2836C596.882 82.0215 607.055 72.1126 618.81 65.5569C630.565 58.9259 642.81 55.6103 655.544 55.6103C665.189 55.6103 672.988 57.2681 678.941 60.5836C684.969 63.8238 689.604 67.8928 692.844 72.7908C696.084 77.6133 698.344 82.3606 699.625 87.0324H701.095L715.676 0H763.713L725.283 231.484H677.811L682.445 203.679H680.411C677.396 208.501 673.403 213.286 668.429 218.033C663.532 222.705 657.579 226.586 650.571 229.675C643.638 232.765 635.5 234.309 626.157 234.309ZM647.406 195.993C655.092 195.993 662.024 193.883 668.203 189.663C674.382 185.368 679.582 179.377 683.801 171.691C688.021 164.005 690.96 155.001 692.618 144.677C694.351 134.354 694.388 125.387 692.731 117.776C691.073 110.166 687.833 104.288 683.01 100.144C678.263 95.9994 671.971 93.9272 664.134 93.9272C656.222 93.9272 649.214 96.0748 643.111 100.37C637.083 104.665 632.072 110.618 628.078 118.228C624.16 125.839 621.372 134.655 619.714 144.677C618.056 154.775 617.943 163.704 619.375 171.465C620.807 179.151 623.858 185.179 628.53 189.55C633.202 193.845 639.494 195.993 647.406 195.993Z" fill="white"/>
<path d="M817.964 234.875C800.18 234.875 785.449 231.258 773.769 224.024C762.09 216.715 753.876 206.391 749.129 193.054C744.457 179.641 743.666 163.779 746.755 145.469C749.769 127.61 755.835 111.937 764.953 98.4484C774.146 84.9602 785.675 74.4485 799.54 66.9132C813.405 59.378 828.852 55.6103 845.882 55.6103C857.335 55.6103 867.696 57.4565 876.965 61.1488C886.309 64.7657 894.07 70.2665 900.249 77.651C906.428 84.9602 910.648 94.1156 912.908 105.117C915.244 116.119 915.206 129.004 912.795 143.773L910.648 156.997H764.162L768.796 127.158H870.07C871.2 120.225 870.748 114.084 868.714 108.734C866.679 103.384 863.288 99.2019 858.541 96.1878C853.794 93.0983 847.954 91.5536 841.022 91.5536C833.938 91.5536 827.307 93.2867 821.128 96.753C814.949 100.219 809.75 104.778 805.53 110.429C801.386 116.006 798.711 122.071 797.505 128.627L792.193 158.241C790.686 167.358 790.987 174.931 793.097 180.96C795.282 186.988 799.05 191.509 804.4 194.523C809.75 197.462 816.532 198.931 824.745 198.931C830.095 198.931 835.106 198.178 839.778 196.671C844.525 195.164 848.745 192.941 852.438 190.002C856.13 186.988 859.144 183.258 861.48 178.812L905.448 181.751C901.379 192.451 895.2 201.795 886.911 209.782C878.623 217.694 868.638 223.873 856.959 228.319C845.354 232.689 832.356 234.875 817.964 234.875Z" fill="white"/>
<path d="M904.71 231.484L933.646 57.8709H979.422L974.449 88.5018H976.371C981.645 78.3292 988.992 70.3041 998.411 64.4266C1007.91 58.5491 1018.57 55.6103 1030.4 55.6103C1042.15 55.6103 1051.72 58.5868 1059.11 64.5396C1066.57 70.4172 1070.86 78.4045 1071.99 88.5018H1073.8C1078.93 78.5553 1086.65 70.6055 1096.97 64.6527C1107.3 58.6245 1118.82 55.6103 1131.56 55.6103C1147.61 55.6103 1159.89 60.772 1168.41 71.0953C1176.92 81.4187 1179.6 95.9617 1176.43 114.725L1156.99 231.484H1108.84L1126.93 124.219C1128.36 114.499 1126.93 107.265 1122.63 102.517C1118.34 97.6949 1112.34 95.2836 1104.66 95.2836C1095.92 95.2836 1088.65 98.0716 1082.84 103.648C1077.04 109.148 1073.46 116.42 1072.11 125.462L1054.13 231.484H1007.45L1025.76 123.202C1027.05 114.612 1025.65 107.83 1021.58 102.857C1017.59 97.8079 1011.6 95.2836 1003.61 95.2836C998.336 95.2836 993.325 96.6399 988.578 99.3526C983.906 101.99 979.95 105.72 976.71 110.543C973.469 115.29 971.36 120.866 970.38 127.271L952.747 231.484H904.71Z" fill="white"/>
<path d="M1218.28 234.762C1207.28 234.762 1197.74 232.84 1189.68 228.997C1181.69 225.079 1175.82 219.277 1172.05 211.591C1168.28 203.905 1167.34 194.372 1169.22 182.994C1170.88 173.349 1174.01 165.286 1178.6 158.806C1183.28 152.25 1188.97 146.976 1195.67 142.982C1202.38 138.988 1209.8 135.936 1217.94 133.827C1226.15 131.717 1234.63 130.285 1243.37 129.531C1253.47 128.476 1261.68 127.459 1268.01 126.48C1274.42 125.5 1279.2 124.106 1282.37 122.298C1285.53 120.414 1287.45 117.626 1288.13 113.933V113.255C1289.26 106.172 1287.94 100.671 1284.17 96.753C1280.48 92.7593 1274.57 90.7624 1266.43 90.7624C1257.84 90.7624 1250.53 92.6462 1244.5 96.4139C1238.55 100.182 1234.29 104.966 1231.73 110.769L1187.87 107.152C1191.79 96.6022 1197.71 87.4846 1205.62 79.7986C1213.61 72.0372 1223.21 66.0844 1234.44 61.94C1245.67 57.7202 1258.25 55.6103 1272.19 55.6103C1281.84 55.6103 1290.84 56.7406 1299.21 59.0012C1307.65 61.2618 1314.92 64.7657 1321.02 69.5129C1327.2 74.2601 1331.65 80.3637 1334.36 87.8236C1337.15 95.2082 1337.71 104.062 1336.05 114.385L1316.5 231.484H1270.84L1274.91 207.408H1273.55C1269.86 212.834 1265.34 217.619 1259.99 221.763C1254.64 225.832 1248.49 229.035 1241.56 231.371C1234.63 233.631 1226.87 234.762 1218.28 234.762ZM1237.61 201.531C1244.61 201.531 1251.06 200.137 1256.93 197.349C1262.89 194.485 1267.78 190.642 1271.63 185.82C1275.55 180.997 1278.03 175.534 1279.09 169.431L1282.03 151.007C1280.52 151.987 1278.33 152.853 1275.47 153.607C1272.68 154.36 1269.63 155.076 1266.32 155.754C1263.08 156.357 1259.8 156.922 1256.48 157.45C1253.17 157.902 1250.19 158.354 1247.55 158.806C1241.75 159.635 1236.55 160.954 1231.95 162.762C1227.36 164.57 1223.63 167.019 1220.76 170.109C1217.9 173.123 1216.13 176.891 1215.45 181.412C1214.4 187.967 1215.94 192.978 1220.09 196.445C1224.31 199.836 1230.15 201.531 1237.61 201.531Z" fill="white"/>
<path d="M462.161 86.2337C428.335 86.2337 400.911 113.657 400.911 147.484C400.911 157.954 403.538 167.816 408.17 176.434L491.111 93.4928C482.493 88.8608 472.631 86.2337 462.161 86.2337ZM516.151 118.533L433.21 201.474C441.833 206.106 451.69 208.733 462.16 208.733C495.986 208.733 523.41 181.309 523.41 147.483C523.41 137.013 520.783 127.155 516.151 118.533ZM462.161 51.7806C515.018 51.7806 557.864 94.6269 557.864 147.484C557.864 200.341 515.018 243.187 462.161 243.187C409.304 243.187 366.458 200.341 366.458 147.484C366.458 94.6269 409.304 51.7806 462.161 51.7806Z" fill="url(#paint0_radial_11_71)"/>
<path d="M553.079 147.484C553.079 97.2696 512.375 56.5657 462.161 56.5657C411.947 56.5657 371.243 97.2696 371.243 147.484C371.243 197.698 411.947 238.402 462.161 238.402C512.375 238.402 553.079 197.698 553.079 147.484ZM518.625 147.483C518.625 140.159 517.231 133.168 514.698 126.752L441.429 200.021C447.845 202.554 454.836 203.948 462.16 203.948C493.343 203.948 518.625 178.666 518.625 147.483ZM462.161 81.4485C473.44 81.4485 484.079 84.2801 493.377 89.2776L499.046 92.3255L407.003 184.368L403.955 178.7C398.957 169.401 396.126 158.763 396.126 147.484C396.126 111.015 425.692 81.4485 462.161 81.4485ZM405.696 147.484C405.696 154.808 407.089 161.801 409.622 168.214L482.891 94.9446C476.478 92.4122 469.485 91.0189 462.161 91.0189C430.977 91.0189 405.696 116.3 405.696 147.484ZM562.649 147.484C562.649 202.983 517.661 247.972 462.161 247.972C406.661 247.972 361.673 202.983 361.673 147.484C361.673 91.9841 406.661 46.9954 462.161 46.9954C517.661 46.9954 562.649 91.9841 562.649 147.484ZM528.195 147.483C528.195 183.952 498.629 213.518 462.16 213.518C450.88 213.518 440.247 210.685 430.945 205.689L425.274 202.643L517.32 110.597L520.366 116.268C525.363 125.57 528.195 136.203 528.195 147.483Z" fill="#A40000"/>
<path d="M462.161 86.2337C428.335 86.2337 400.911 113.657 400.911 147.484C400.911 157.954 403.538 167.816 408.17 176.434L491.111 93.4928C482.493 88.8608 472.631 86.2337 462.161 86.2337ZM516.151 118.533L433.21 201.474C441.833 206.106 451.69 208.733 462.16 208.733C495.986 208.733 523.41 181.309 523.41 147.483C523.41 137.013 520.783 127.155 516.151 118.533ZM462.161 51.7806C515.018 51.7806 557.864 94.6269 557.864 147.484C557.864 200.341 515.018 243.187 462.161 243.187C409.304 243.187 366.458 200.341 366.458 147.484C366.458 94.6269 409.304 51.7806 462.161 51.7806Z" fill="url(#paint1_radial_11_71)"/>
<path d="M553.079 147.484C553.079 97.2696 512.375 56.5657 462.161 56.5657C411.947 56.5657 371.243 97.2696 371.243 147.484C371.243 197.698 411.947 238.402 462.161 238.402C512.375 238.402 553.079 197.698 553.079 147.484ZM518.625 147.483C518.625 140.159 517.231 133.168 514.698 126.752L441.429 200.021C447.845 202.554 454.836 203.948 462.16 203.948C493.343 203.948 518.625 178.666 518.625 147.483ZM462.161 81.4485C473.44 81.4485 484.079 84.2801 493.377 89.2776L499.046 92.3255L407.003 184.368L403.955 178.7C398.957 169.401 396.126 158.763 396.126 147.484C396.126 111.015 425.692 81.4485 462.161 81.4485ZM405.696 147.484C405.696 154.808 407.089 161.801 409.622 168.214L482.891 94.9446C476.478 92.4122 469.485 91.0189 462.161 91.0189C430.977 91.0189 405.696 116.3 405.696 147.484ZM562.649 147.484C562.649 202.983 517.661 247.972 462.161 247.972C406.661 247.972 361.673 202.983 361.673 147.484C361.673 91.9841 406.661 46.9954 462.161 46.9954C517.661 46.9954 562.649 91.9841 562.649 147.484ZM528.195 147.483C528.195 183.952 498.629 213.518 462.16 213.518C450.88 213.518 440.247 210.685 430.945 205.689L425.274 202.643L517.32 110.597L520.366 116.268C525.363 125.57 528.195 136.203 528.195 147.483Z" fill="#A40000"/>
<path d="M462.161 86.2337C428.335 86.2337 400.911 113.657 400.911 147.484C400.911 157.954 403.538 167.816 408.17 176.434L491.111 93.4928C482.493 88.8608 472.631 86.2337 462.161 86.2337ZM516.151 118.533L433.21 201.474C441.833 206.106 451.69 208.733 462.16 208.733C495.986 208.733 523.41 181.309 523.41 147.483C523.41 137.013 520.783 127.155 516.151 118.533ZM462.161 51.7806C515.018 51.7806 557.864 94.6269 557.864 147.484C557.864 200.341 515.018 243.187 462.161 243.187C409.304 243.187 366.458 200.341 366.458 147.484C366.458 94.6269 409.304 51.7806 462.161 51.7806Z" fill="url(#paint2_radial_11_71)"/>
<path d="M553.079 147.484C553.079 97.2696 512.375 56.5657 462.161 56.5657C411.947 56.5657 371.243 97.2696 371.243 147.484C371.243 197.698 411.947 238.402 462.161 238.402C512.375 238.402 553.079 197.698 553.079 147.484ZM518.625 147.483C518.625 140.159 517.231 133.168 514.698 126.752L441.429 200.021C447.845 202.554 454.836 203.948 462.16 203.948C493.343 203.948 518.625 178.666 518.625 147.483ZM462.161 81.4485C473.44 81.4485 484.079 84.2801 493.377 89.2776L499.046 92.3255L407.003 184.368L403.955 178.7C398.957 169.401 396.126 158.763 396.126 147.484C396.126 111.015 425.692 81.4485 462.161 81.4485ZM405.696 147.484C405.696 154.808 407.089 161.801 409.622 168.214L482.891 94.9446C476.478 92.4122 469.485 91.0189 462.161 91.0189C430.977 91.0189 405.696 116.3 405.696 147.484ZM562.649 147.484C562.649 202.983 517.661 247.972 462.161 247.972C406.661 247.972 361.673 202.983 361.673 147.484C361.673 91.9841 406.661 46.9954 462.161 46.9954C517.661 46.9954 562.649 91.9841 562.649 147.484ZM528.195 147.483C528.195 183.952 498.629 213.518 462.16 213.518C450.88 213.518 440.247 210.685 430.945 205.689L425.274 202.643L517.32 110.597L520.366 116.268C525.363 125.57 528.195 136.203 528.195 147.483Z" fill="#A40000"/>
<path d="M462.161 86.2337C428.335 86.2337 400.911 113.657 400.911 147.484C400.911 157.954 403.538 167.816 408.17 176.434L491.111 93.4928C482.493 88.8608 472.631 86.2337 462.161 86.2337ZM516.151 118.533L433.21 201.474C441.833 206.106 451.69 208.733 462.16 208.733C495.986 208.733 523.41 181.309 523.41 147.483C523.41 137.013 520.783 127.155 516.151 118.533ZM462.161 51.7806C515.018 51.7806 557.864 94.6269 557.864 147.484C557.864 200.341 515.018 243.187 462.161 243.187C409.304 243.187 366.458 200.341 366.458 147.484C366.458 94.6269 409.304 51.7806 462.161 51.7806Z" fill="url(#paint3_radial_11_71)"/>
<path d="M553.079 147.484C553.079 97.2696 512.375 56.5657 462.161 56.5657C411.947 56.5657 371.243 97.2696 371.243 147.484C371.243 197.698 411.947 238.402 462.161 238.402C512.375 238.402 553.079 197.698 553.079 147.484ZM518.625 147.483C518.625 140.159 517.231 133.168 514.698 126.752L441.429 200.021C447.845 202.554 454.836 203.948 462.16 203.948C493.343 203.948 518.625 178.666 518.625 147.483ZM462.161 81.4485C473.44 81.4485 484.079 84.2801 493.377 89.2776L499.046 92.3255L407.003 184.368L403.955 178.7C398.957 169.401 396.126 158.763 396.126 147.484C396.126 111.015 425.692 81.4485 462.161 81.4485ZM405.696 147.484C405.696 154.808 407.089 161.801 409.622 168.214L482.891 94.9446C476.478 92.4122 469.485 91.0189 462.161 91.0189C430.977 91.0189 405.696 116.3 405.696 147.484ZM562.649 147.484C562.649 202.983 517.661 247.972 462.161 247.972C406.661 247.972 361.673 202.983 361.673 147.484C361.673 91.9841 406.661 46.9954 462.161 46.9954C517.661 46.9954 562.649 91.9841 562.649 147.484ZM528.195 147.483C528.195 183.952 498.629 213.518 462.16 213.518C450.88 213.518 440.247 210.685 430.945 205.689L425.274 202.643L517.32 110.597L520.366 116.268C525.363 125.57 528.195 136.203 528.195 147.483Z" fill="#A40000"/>
<defs>
<radialGradient id="paint0_radial_11_71" cx="0" cy="0" r="1" gradientUnits="userSpaceOnUse" gradientTransform="translate(668.491 57.3924) scale(1081.98 243.513)">
<stop stop-color="#FFDD91"/>
<stop offset="0.12" stop-color="#FFBE54"/>
<stop offset="0.24" stop-color="#FFA016"/>
<stop offset="0.45" stop-color="#FC5B16"/>
<stop offset="0.67" stop-color="#F91616"/>
<stop offset="0.83" stop-color="#C70B0B"/>
<stop offset="1" stop-color="#940000"/>
</radialGradient>
<radialGradient id="paint1_radial_11_71" cx="0" cy="0" r="1" gradientUnits="userSpaceOnUse" gradientTransform="translate(668.491 57.3924) scale(1081.98 243.513)">
<stop stop-color="#FFDD91"/>
<stop offset="0.12" stop-color="#FFBE54"/>
<stop offset="0.24" stop-color="#FFA016"/>
<stop offset="0.45" stop-color="#FC5B16"/>
<stop offset="0.67" stop-color="#F91616"/>
<stop offset="0.83" stop-color="#C70B0B"/>
<stop offset="1" stop-color="#940000"/>
</radialGradient>
<radialGradient id="paint2_radial_11_71" cx="0" cy="0" r="1" gradientUnits="userSpaceOnUse" gradientTransform="translate(668.491 57.3924) scale(1081.98 243.513)">
<stop stop-color="#FFDD91"/>
<stop offset="0.12" stop-color="#FFBE54"/>
<stop offset="0.24" stop-color="#FFA016"/>
<stop offset="0.45" stop-color="#FC5B16"/>
<stop offset="0.67" stop-color="#F91616"/>
<stop offset="0.83" stop-color="#C70B0B"/>
<stop offset="1" stop-color="#940000"/>
</radialGradient>
<radialGradient id="paint3_radial_11_71" cx="0" cy="0" r="1" gradientUnits="userSpaceOnUse" gradientTransform="translate(668.491 57.3924) scale(1081.98 243.513)">
<stop stop-color="#FFDD91"/>
<stop offset="0.12" stop-color="#FFBE54"/>
<stop offset="0.24" stop-color="#FFA016"/>
<stop offset="0.45" stop-color="#FC5B16"/>
<stop offset="0.67" stop-color="#F91616"/>
<stop offset="0.83" stop-color="#C70B0B"/>
<stop offset="1" stop-color="#940000"/>
</radialGradient>
</defs>
</svg>
